<svg width="29" height="29" viewBox="0 0 29 29" fill="none" xmlns="http://www.w3.org/2000/svg">
<path fill-rule="evenodd" clip-rule="evenodd" d="M1.8125 14.5C1.8125 17.8649 3.14921 21.092 5.52858 23.4714C7.90795 25.8508 11.1351 27.1875 14.5 27.1875C17.8649 27.1875 21.092 25.8508 23.4714 23.4714C25.8508 21.092 27.1875 17.8649 27.1875 14.5C27.1875 11.1351 25.8508 7.90795 23.4714 5.52858C21.092 3.14921 17.8649 1.8125 14.5 1.8125C11.1351 1.8125 7.90795 3.14921 5.52858 5.52858C3.14921 7.90795 1.8125 11.1351 1.8125 14.5ZM29 14.5C29 18.3456 27.4723 22.0338 24.753 24.753C22.0338 27.4723 18.3456 29 14.5 29C10.6544 29 6.96623 27.4723 4.24695 24.753C1.52767 22.0338 0 18.3456 0 14.5C0 10.6544 1.52767 6.96623 4.24695 4.24695C6.96623 1.52767 10.6544 0 14.5 0C18.3456 0 22.0338 1.52767 24.753 4.24695C27.4723 6.96623 29 10.6544 29 14.5ZM20.8438 13.5938C21.0841 13.5938 21.3146 13.6892 21.4846 13.8592C21.6545 14.0291 21.75 14.2596 21.75 14.5C21.75 14.7404 21.6545 14.9709 21.4846 15.1408C21.3146 15.3108 21.0841 15.4062 20.8438 15.4062H10.3439L14.2354 19.2959C14.3196 19.3801 14.3865 19.4802 14.4321 19.5903C14.4777 19.7003 14.5011 19.8183 14.5011 19.9375C14.5011 20.0567 14.4777 20.1747 14.4321 20.2847C14.3865 20.3948 14.3196 20.4949 14.2354 20.5791C14.1511 20.6634 14.0511 20.7302 13.941 20.7758C13.8309 20.8214 13.7129 20.8449 13.5938 20.8449C13.4746 20.8449 13.3566 20.8214 13.2465 20.7758C13.1364 20.7302 13.0364 20.6634 12.9521 20.5791L7.51462 15.1416C7.43023 15.0574 7.36327 14.9574 7.31758 14.8473C7.2719 14.7372 7.24838 14.6192 7.24838 14.5C7.24838 14.3808 7.2719 14.2628 7.31758 14.1527C7.36327 14.0426 7.43023 13.9426 7.51462 13.8584L12.9521 8.42087C13.1223 8.25071 13.3531 8.1551 13.5938 8.1551C13.8344 8.1551 14.0652 8.25071 14.2354 8.42087C14.4055 8.59104 14.5011 8.82184 14.5011 9.0625C14.5011 9.30316 14.4055 9.53396 14.2354 9.70413L10.3439 13.5938H20.8438Z" fill="black"/>
</svg>
