<svg width="20" height="17" viewBox="0 0 20 17" fill="none" xmlns="http://www.w3.org/2000/svg">
<path d="M10.9998 4.05V1C10.9998 0.734784 11.1052 0.48043 11.2927 0.292893C11.4802 0.105357 11.7346 0 11.9998 0C12.2621 0.00110462 12.5135 0.105256 12.6998 0.29L19.6998 7.29C19.7935 7.38296 19.8679 7.49356 19.9187 7.61542C19.9695 7.73728 19.9956 7.86799 19.9956 8C19.9956 8.13201 19.9695 8.26272 19.9187 8.38458C19.8679 8.50644 19.7935 8.61704 19.6998 8.71L12.6998 15.71C12.5594 15.8476 12.3816 15.9408 12.1886 15.9779C11.9955 16.015 11.7958 15.9944 11.6144 15.9186C11.433 15.8429 11.278 15.7153 11.1687 15.5519C11.0594 15.3886 11.0006 15.1966 10.9998 15V11.9H10.1498C8.56989 11.8764 7.00376 12.197 5.56014 12.8393C4.11651 13.4817 2.82997 14.4306 1.78981 15.62C1.66446 15.7869 1.49003 15.9104 1.29097 15.9731C1.09192 16.0359 0.878212 16.0348 0.679808 15.97C0.477901 15.9019 0.303041 15.771 0.180719 15.5965C0.0583973 15.422 -0.00498581 15.213 -0.000192642 15C-0.000192642 5.88 8.07981 4.32 10.9998 4.05ZM10.1498 9.88C10.8187 9.87791 11.4869 9.92134 12.1498 10.01C12.3865 10.0459 12.6025 10.1656 12.7585 10.3473C12.9145 10.5289 13.0001 10.7606 12.9998 11V12.59L17.5798 8L12.9998 3.41V5C12.9998 5.26522 12.8945 5.51957 12.7069 5.70711C12.5194 5.89464 12.265 6 11.9998 6C11.0898 6 3.88981 6.2 2.32981 12.43C4.59411 10.7606 7.33664 9.86626 10.1498 9.88Z" fill="black"/>
</svg>
