<?xml version="1.0" standalone="no"?>
<!DOCTYPE svg PUBLIC "-//W3C//DTD SVG 20010904//EN"
 "http://www.w3.org/TR/2001/REC-SVG-20010904/DTD/svg10.dtd">
<svg version="1.0" xmlns="http://www.w3.org/2000/svg"
 width="263.000000pt" height="263.000000pt" viewBox="0 0 263.000000 263.000000"
 preserveAspectRatio="xMidYMid meet">
<metadata>
Created by potrace 1.14, written by Peter Selinger 2001-2017
</metadata>
<g transform="translate(0.000000,263.000000) scale(0.100000,-0.100000)"
fill="#000000" stroke="none">
<path d="M0 2485 l0 -145 140 0 140 0 0 145 0 145 -140 0 -140 0 0 -145z"/>
<path d="M580 2485 l0 -145 885 0 885 0 0 -1035 0 -1035 -1035 0 -1035 0 0
885 0 885 -140 0 -140 0 0 -1020 0 -1020 1315 0 1315 0 0 1315 0 1314 -1025 0
-1025 0 0 -144z"/>
</g>
</svg>
